<svg aria-hidden="true" style="position: absolute; width: 0; height: 0; overflow: hidden;" version="1.1"
    xmlns="http://www.w3.org/2000/svg" xmlns:xlink="http://www.w3.org/1999/xlink">
    <defs>
        <symbol id="icon-arrow-left" viewBox="0 0 32 32">
            <path fill="none" stroke="currentColor" style="stroke: var(--color1, currentColor)" stroke-linejoin="round"
                stroke-linecap="round" stroke-miterlimit="4" stroke-width="2"
                d="M5.333 16h21.333M5.333 16l8-8M5.333 16l8 8"></path>
        </symbol>
        <symbol id="icon-chevron-down" viewBox="0 0 32 32">
            <path fill="none" stroke="currentColor" style="stroke: var(--color1, currentColor)" stroke-linejoin="round"
                stroke-linecap="round" stroke-miterlimit="4" stroke-width="2" d="M9.333 13.333l6.667 6.667 6.667-6.667">
            </path>
        </symbol>
        <symbol id="icon-chevron-left" viewBox="0 0 32 32">
            <path
                d="M11.334 17.067l7.6 7.467c0.533 0.533 1.333 0.533 1.867 0s0.533-1.333 0-1.867l-6.533-6.667 6.533-6.667c0.533-0.533 0.533-1.333 0-1.867-0.267-0.267-0.533-0.4-0.933-0.4s-0.667 0.133-0.933 0.4l-7.6 7.467c-0.533 0.667-0.533 1.467 0 2.133 0-0.133 0-0.133 0 0z">
            </path>
        </symbol>
        <symbol id="icon-chevron-right" viewBox="0 0 32 32">
            <path
                d="M20.721 15.053l-7.547-7.533c-0.124-0.125-0.271-0.224-0.434-0.292s-0.337-0.103-0.513-0.103c-0.176 0-0.35 0.035-0.513 0.103s-0.31 0.167-0.434 0.292c-0.248 0.25-0.388 0.588-0.388 0.94s0.139 0.69 0.388 0.94l6.6 6.667-6.6 6.6c-0.248 0.25-0.388 0.588-0.388 0.94s0.139 0.69 0.388 0.94c0.123 0.126 0.271 0.226 0.433 0.295s0.337 0.104 0.513 0.105c0.176-0.001 0.351-0.036 0.513-0.105s0.31-0.169 0.433-0.295l7.547-7.533c0.135-0.125 0.243-0.276 0.317-0.445s0.112-0.351 0.112-0.535c0-0.184-0.038-0.366-0.112-0.535s-0.182-0.32-0.317-0.445z">
            </path>
        </symbol>
        <symbol id="icon-cross" viewBox="0 0 32 32">
            <path fill="none" stroke="currentColor" style="stroke: var(--color1, currentColor)" stroke-linejoin="round"
                stroke-linecap="round" stroke-miterlimit="4" stroke-width="2"
                d="M21.333 10.667l-10.667 10.667M10.667 10.667l10.667 10.667"></path>
        </symbol>
        <symbol id="icon-filters" viewBox="0 0 32 32">
            <path fill="none" stroke="currentColor" style="stroke: var(--color1, currentColor)" stroke-linejoin="round"
                stroke-linecap="round" stroke-miterlimit="4" stroke-width="2"
                d="M5.333 5.333l6.667 10.667v8l8 4v-12l6.667-10.667h-21.333z"></path>
        </symbol>
        <symbol id="icon-plus" viewBox="0 0 33 32">
            <path fill="none" stroke="currentColor" style="stroke: var(--color2, currentColor)" stroke-linejoin="round"
                stroke-linecap="round" stroke-miterlimit="4" stroke-width="2" d="M16.667 5.333v21.333M6 16h21.333">
            </path>
        </symbol>
        <symbol id="icon-search" viewBox="0 0 24 24">
            <path
                d="M19.4697 20.5303C19.7626 20.8232 20.2374 20.8232 20.5303 20.5303C20.8232 20.2374 20.8232 19.7626 20.5303 19.4697L19.4697 20.5303ZM17.25 10.5C17.25 14.2279 14.2279 17.25 10.5 17.25V18.75C15.0563 18.75 18.75 15.0563 18.75 10.5H17.25ZM10.5 17.25C6.77208 17.25 3.75 14.2279 3.75 10.5H2.25C2.25 15.0563 5.94365 18.75 10.5 18.75V17.25ZM3.75 10.5C3.75 6.77208 6.77208 3.75 10.5 3.75V2.25C5.94365 2.25 2.25 5.94365 2.25 10.5H3.75ZM10.5 3.75C14.2279 3.75 17.25 6.77208 17.25 10.5H18.75C18.75 5.94365 15.0563 2.25 10.5 2.25V3.75ZM20.5303 19.4697L16.3428 15.2821L15.2821 16.3428L19.4697 20.5303L20.5303 19.4697Z"
                fill="currentColor">
            </path>
        </symbol>
        <symbol id="icon-sort" viewBox="0 0 32 32">
            <path stroke-linejoin="miter" stroke-linecap="round" stroke-miterlimit="4" stroke-width="2"
                d="M18.667 6.667c0-1.473-1.194-2.667-2.667-2.667s-2.667 1.194-2.667 2.667M18.667 6.667c0 1.473-1.194 2.667-2.667 2.667s-2.667-1.194-2.667-2.667M18.667 6.667h8M13.333 6.667h-8M21.333 16c0 1.473 1.194 2.667 2.667 2.667s2.667-1.194 2.667-2.667c0-1.473-1.194-2.667-2.667-2.667s-2.667 1.194-2.667 2.667zM21.333 16h-16M10.667 25.333c0-1.473-1.194-2.667-2.667-2.667s-2.667 1.194-2.667 2.667c0 1.473 1.194 2.667 2.667 2.667s2.667-1.194 2.667-2.667zM10.667 25.333h16">
            </path>
        </symbol>
    </defs>
</svg>